<svg width="830" height="88" viewBox="0 0 830 88" fill="none" xmlns="http://www.w3.org/2000/svg">
<rect width="830" height="88" fill="white"/>
<mask id="path-2-inside-1_206_2" fill="white">
<path fill-rule="evenodd" clip-rule="evenodd" d="M308.682 25H327.2V51.8H321.75V34.2L308.682 25ZM303 21H307H327.2H331.2V25V51.8V55.8H327.2H321.75V69L303 55.8V51.8V25V21Z"/>
</mask>
<path fill-rule="evenodd" clip-rule="evenodd" d="M308.682 25H327.2V51.8H321.75V34.2L308.682 25ZM303 21H307H327.2H331.2V25V51.8V55.8H327.2H321.75V69L303 55.8V51.8V25V21Z" fill="black"/>
<path d="M327.2 25H331.2V21H327.2V25ZM308.682 25V21H296.051L306.379 28.2708L308.682 25ZM327.2 51.8V55.8H331.2V51.8H327.2ZM321.75 51.8H317.75V55.8H321.75V51.8ZM321.75 34.2H325.75V32.1242L324.053 30.9292L321.75 34.2ZM303 21V17H299V21H303ZM331.2 21H335.2V17H331.2V21ZM331.2 55.8V59.8H335.2V55.8H331.2ZM321.75 55.8V51.8H317.75V55.8H321.75ZM321.75 69L319.447 72.2708L325.75 76.7078V69H321.75ZM303 55.8H299V57.8758L300.697 59.0708L303 55.8ZM327.2 21H308.682V29H327.2V21ZM331.2 51.8V25H323.2V51.8H331.2ZM321.75 55.8H327.2V47.8H321.75V55.8ZM317.75 34.2V51.8H325.75V34.2H317.75ZM306.379 28.2708L319.447 37.4708L324.053 30.9292L310.984 21.7292L306.379 28.2708ZM307 17H303V25H307V17ZM327.2 17H307V25H327.2V17ZM331.2 17H327.2V25H331.2V17ZM335.2 25V21H327.2V25H335.2ZM335.2 51.8V25H327.2V51.8H335.2ZM335.2 55.8V51.8H327.2V55.8H335.2ZM327.2 59.8H331.2V51.8H327.2V59.8ZM321.75 59.8H327.2V51.8H321.75V59.8ZM317.75 55.8V69H325.75V55.8H317.75ZM324.053 65.7292L305.303 52.5292L300.697 59.0708L319.447 72.2708L324.053 65.7292ZM307 55.8V51.8H299V55.8H307ZM307 51.8V25H299V51.8H307ZM307 25V21H299V25H307Z" fill="black" mask="url(#path-2-inside-1_206_2)"/>
<path d="M346.556 55V29.62H358.148C360.98 29.62 363.164 30.304 364.7 31.672C366.236 33.04 367.004 34.948 367.004 37.396C367.004 39.292 366.512 40.876 365.528 42.148C364.568 43.396 363.188 44.248 361.388 44.704C362.66 45.088 363.704 46.012 364.52 47.476L368.624 55H362.468L358.076 46.9C357.716 46.252 357.272 45.808 356.744 45.568C356.216 45.304 355.592 45.172 354.872 45.172H352.136V55H346.556ZM352.136 41.14H357.14C360.14 41.14 361.64 39.94 361.64 37.54C361.64 35.164 360.14 33.976 357.14 33.976H352.136V41.14ZM379.158 55.396C377.262 55.396 375.606 55.024 374.19 54.28C372.798 53.512 371.718 52.444 370.95 51.076C370.182 49.684 369.798 48.04 369.798 46.144C369.798 44.272 370.182 42.652 370.95 41.284C371.718 39.892 372.798 38.824 374.19 38.08C375.606 37.336 377.262 36.964 379.158 36.964C381.054 36.964 382.698 37.336 384.09 38.08C385.506 38.824 386.598 39.892 387.366 41.284C388.158 42.652 388.554 44.272 388.554 46.144C388.554 48.04 388.158 49.684 387.366 51.076C386.598 52.444 385.506 53.512 384.09 54.28C382.698 55.024 381.054 55.396 379.158 55.396ZM379.158 51.328C380.31 51.328 381.246 50.908 381.966 50.068C382.71 49.228 383.082 47.92 383.082 46.144C383.082 44.392 382.71 43.108 381.966 42.292C381.246 41.452 380.31 41.032 379.158 41.032C378.006 41.032 377.07 41.452 376.35 42.292C375.63 43.108 375.27 44.392 375.27 46.144C375.27 47.92 375.63 49.228 376.35 50.068C377.07 50.908 378.006 51.328 379.158 51.328ZM400.357 55.396C398.461 55.396 396.805 55.024 395.389 54.28C393.997 53.512 392.917 52.444 392.149 51.076C391.381 49.684 390.997 48.04 390.997 46.144C390.997 44.272 391.381 42.652 392.149 41.284C392.917 39.892 393.997 38.824 395.389 38.08C396.805 37.336 398.461 36.964 400.357 36.964C402.253 36.964 403.897 37.336 405.289 38.08C406.705 38.824 407.797 39.892 408.565 41.284C409.357 42.652 409.753 44.272 409.753 46.144C409.753 48.04 409.357 49.684 408.565 51.076C407.797 52.444 406.705 53.512 405.289 54.28C403.897 55.024 402.253 55.396 400.357 55.396ZM400.357 51.328C401.509 51.328 402.445 50.908 403.165 50.068C403.909 49.228 404.281 47.92 404.281 46.144C404.281 44.392 403.909 43.108 403.165 42.292C402.445 41.452 401.509 41.032 400.357 41.032C399.205 41.032 398.269 41.452 397.549 42.292C396.829 43.108 396.469 44.392 396.469 46.144C396.469 47.92 396.829 49.228 397.549 50.068C398.269 50.908 399.205 51.328 400.357 51.328ZM413.133 55V37.324H418.461V39.88C418.989 38.968 419.709 38.26 420.621 37.756C421.557 37.228 422.637 36.964 423.861 36.964C425.109 36.964 426.165 37.24 427.029 37.792C427.917 38.344 428.589 39.184 429.045 40.312C429.597 39.256 430.389 38.44 431.421 37.864C432.477 37.264 433.641 36.964 434.913 36.964C436.929 36.964 438.429 37.576 439.413 38.8C440.397 40 440.889 41.86 440.889 44.38V55H435.453V44.56C435.453 43.384 435.261 42.532 434.877 42.004C434.517 41.452 433.893 41.176 433.005 41.176C431.973 41.176 431.169 41.536 430.593 42.256C430.017 42.976 429.729 43.996 429.729 45.316V55H424.293V44.56C424.293 43.384 424.101 42.532 423.717 42.004C423.333 41.452 422.709 41.176 421.845 41.176C420.813 41.176 420.009 41.536 419.433 42.256C418.857 42.976 418.569 43.996 418.569 45.316V55H413.133ZM451.821 55.396C450.261 55.396 448.809 55.216 447.465 54.856C446.121 54.496 445.005 54.004 444.117 53.38L445.413 49.852C446.301 50.404 447.309 50.848 448.437 51.184C449.589 51.496 450.729 51.652 451.857 51.652C452.865 51.652 453.609 51.496 454.089 51.184C454.569 50.848 454.809 50.416 454.809 49.888C454.809 49.048 454.197 48.52 452.973 48.304L449.193 47.62C447.681 47.356 446.529 46.816 445.737 46C444.945 45.184 444.549 44.116 444.549 42.796C444.549 41.596 444.885 40.564 445.557 39.7C446.229 38.836 447.153 38.164 448.329 37.684C449.505 37.204 450.861 36.964 452.397 36.964C453.669 36.964 454.905 37.132 456.105 37.468C457.305 37.78 458.337 38.284 459.201 38.98L457.833 42.472C457.113 41.944 456.249 41.512 455.241 41.176C454.257 40.84 453.333 40.672 452.469 40.672C451.389 40.672 450.609 40.852 450.129 41.212C449.649 41.548 449.409 41.98 449.409 42.508C449.409 43.348 449.973 43.876 451.101 44.092L454.881 44.776C456.441 45.04 457.629 45.568 458.445 46.36C459.261 47.128 459.669 48.184 459.669 49.528C459.669 51.376 458.949 52.816 457.509 53.848C456.069 54.88 454.173 55.396 451.821 55.396ZM463.788 61.48L467.172 54.028L459.9 37.324H465.624L470.052 48.556L474.624 37.324H480.024L469.332 61.48H463.788Z" fill="black"/>
</svg>
