<svg width="294" height="80" viewBox="0 0 294 80" fill="none" xmlns="http://www.w3.org/2000/svg">
<mask id="path-1-inside-1_10_13" fill="white">
<path fill-rule="evenodd" clip-rule="evenodd" d="M14.6818 8H42.6V46.4H34V21.6L14.6818 8ZM9 4H13H42.6H46.6V8V46.4V50.4H42.6H34V68L9 50.4V46.4V8V4Z"/>
</mask>
<path fill-rule="evenodd" clip-rule="evenodd" d="M14.6818 8H42.6V46.4H34V21.6L14.6818 8ZM9 4H13H42.6H46.6V8V46.4V50.4H42.6H34V68L9 50.4V46.4V8V4Z" fill="black"/>
<path d="M42.6 8H46.6V4H42.6V8ZM14.6818 8V4H2.0514L12.3792 11.2708L14.6818 8ZM42.6 46.4V50.4H46.6V46.4H42.6ZM34 46.4H30V50.4H34V46.4ZM34 21.6H38V19.5242L36.3026 18.3292L34 21.6ZM9 4V0H5V4H9ZM46.6 4H50.6V0H46.6V4ZM46.6 50.4V54.4H50.6V50.4H46.6ZM34 50.4V46.4H30V50.4H34ZM34 68L31.6974 71.2708L38 75.7078V68H34ZM9 50.4H5V52.4758L6.69738 53.6708L9 50.4ZM42.6 4H14.6818V12H42.6V4ZM46.6 46.4V8H38.6V46.4H46.6ZM34 50.4H42.6V42.4H34V50.4ZM30 21.6V46.4H38V21.6H30ZM12.3792 11.2708L31.6974 24.8708L36.3026 18.3292L16.9844 4.72923L12.3792 11.2708ZM13 0H9V8H13V0ZM42.6 0H13V8H42.6V0ZM46.6 0H42.6V8H46.6V0ZM50.6 8V4H42.6V8H50.6ZM50.6 46.4V8H42.6V46.4H50.6ZM50.6 50.4V46.4H42.6V50.4H50.6ZM42.6 54.4H46.6V46.4H42.6V54.4ZM34 54.4H42.6V46.4H34V54.4ZM30 50.4V68H38V50.4H30ZM36.3026 64.7292L11.3026 47.1292L6.69738 53.6708L31.6974 71.2708L36.3026 64.7292ZM13 50.4V46.4H5V50.4H13ZM13 46.4V8H5V46.4H13ZM13 8V4H5V8H13Z" fill="black" mask="url(#path-1-inside-1_10_13)"/>
<path d="M70.408 48V14.16H85.864C89.64 14.16 92.552 15.072 94.6 16.896C96.648 18.72 97.672 21.264 97.672 24.528C97.672 27.056 97.016 29.168 95.704 30.864C94.424 32.528 92.584 33.664 90.184 34.272C91.88 34.784 93.272 36.016 94.36 37.968L99.832 48H91.624L85.768 37.2C85.288 36.336 84.696 35.744 83.992 35.424C83.288 35.072 82.456 34.896 81.496 34.896H77.848V48H70.408ZM77.848 29.52H84.52C88.52 29.52 90.52 27.92 90.52 24.72C90.52 21.552 88.52 19.968 84.52 19.968H77.848V29.52ZM113.878 48.528C111.35 48.528 109.142 48.032 107.254 47.04C105.398 46.016 103.958 44.592 102.934 42.768C101.91 40.912 101.398 38.72 101.398 36.192C101.398 33.696 101.91 31.536 102.934 29.712C103.958 27.856 105.398 26.432 107.254 25.44C109.142 24.448 111.35 23.952 113.878 23.952C116.406 23.952 118.598 24.448 120.454 25.44C122.342 26.432 123.798 27.856 124.822 29.712C125.878 31.536 126.406 33.696 126.406 36.192C126.406 38.72 125.878 40.912 124.822 42.768C123.798 44.592 122.342 46.016 120.454 47.04C118.598 48.032 116.406 48.528 113.878 48.528ZM113.878 43.104C115.414 43.104 116.662 42.544 117.622 41.424C118.614 40.304 119.11 38.56 119.11 36.192C119.11 33.856 118.614 32.144 117.622 31.056C116.662 29.936 115.414 29.376 113.878 29.376C112.342 29.376 111.094 29.936 110.134 31.056C109.174 32.144 108.694 33.856 108.694 36.192C108.694 38.56 109.174 40.304 110.134 41.424C111.094 42.544 112.342 43.104 113.878 43.104ZM142.143 48.528C139.615 48.528 137.407 48.032 135.519 47.04C133.663 46.016 132.223 44.592 131.199 42.768C130.175 40.912 129.663 38.72 129.663 36.192C129.663 33.696 130.175 31.536 131.199 29.712C132.223 27.856 133.663 26.432 135.519 25.44C137.407 24.448 139.615 23.952 142.143 23.952C144.671 23.952 146.863 24.448 148.719 25.44C150.607 26.432 152.063 27.856 153.087 29.712C154.143 31.536 154.671 33.696 154.671 36.192C154.671 38.72 154.143 40.912 153.087 42.768C152.063 44.592 150.607 46.016 148.719 47.04C146.863 48.032 144.671 48.528 142.143 48.528ZM142.143 43.104C143.679 43.104 144.927 42.544 145.887 41.424C146.879 40.304 147.375 38.56 147.375 36.192C147.375 33.856 146.879 32.144 145.887 31.056C144.927 29.936 143.679 29.376 142.143 29.376C140.607 29.376 139.359 29.936 138.399 31.056C137.439 32.144 136.959 33.856 136.959 36.192C136.959 38.56 137.439 40.304 138.399 41.424C139.359 42.544 140.607 43.104 142.143 43.104ZM159.177 48V24.432H166.281V27.84C166.985 26.624 167.945 25.68 169.161 25.008C170.409 24.304 171.849 23.952 173.481 23.952C175.145 23.952 176.553 24.32 177.705 25.056C178.889 25.792 179.785 26.912 180.393 28.416C181.129 27.008 182.185 25.92 183.561 25.152C184.969 24.352 186.521 23.952 188.217 23.952C190.905 23.952 192.905 24.768 194.217 26.4C195.529 28 196.185 30.48 196.185 33.84V48H188.937V34.08C188.937 32.512 188.681 31.376 188.169 30.672C187.689 29.936 186.857 29.568 185.673 29.568C184.297 29.568 183.225 30.048 182.457 31.008C181.689 31.968 181.305 33.328 181.305 35.088V48H174.057V34.08C174.057 32.512 173.801 31.376 173.289 30.672C172.777 29.936 171.945 29.568 170.793 29.568C169.417 29.568 168.345 30.048 167.577 31.008C166.809 31.968 166.425 33.328 166.425 35.088V48H159.177ZM210.761 48.528C208.681 48.528 206.745 48.288 204.953 47.808C203.161 47.328 201.673 46.672 200.489 45.84L202.217 41.136C203.401 41.872 204.745 42.464 206.249 42.912C207.785 43.328 209.305 43.536 210.809 43.536C212.153 43.536 213.145 43.328 213.785 42.912C214.425 42.464 214.745 41.888 214.745 41.184C214.745 40.064 213.929 39.36 212.297 39.072L207.257 38.16C205.241 37.808 203.705 37.088 202.649 36C201.593 34.912 201.065 33.488 201.065 31.728C201.065 30.128 201.513 28.752 202.409 27.6C203.305 26.448 204.537 25.552 206.105 24.912C207.673 24.272 209.481 23.952 211.529 23.952C213.225 23.952 214.873 24.176 216.473 24.624C218.073 25.04 219.449 25.712 220.601 26.64L218.777 31.296C217.817 30.592 216.665 30.016 215.321 29.568C214.009 29.12 212.777 28.896 211.625 28.896C210.185 28.896 209.145 29.136 208.505 29.616C207.865 30.064 207.545 30.64 207.545 31.344C207.545 32.464 208.297 33.168 209.801 33.456L214.841 34.368C216.921 34.72 218.505 35.424 219.593 36.48C220.681 37.504 221.225 38.912 221.225 40.704C221.225 43.168 220.265 45.088 218.345 46.464C216.425 47.84 213.897 48.528 210.761 48.528ZM226.717 56.64L231.229 46.704L221.533 24.432H229.165L235.069 39.408L241.165 24.432H248.365L234.109 56.64H226.717ZM253.429 34.368V19.44H247.861V14.16H265.573V19.44H259.957V34.368H253.429ZM268.309 34.368V14.16H273.397L279.445 24.288L285.493 14.16H290.533V34.368H285.013V24.048L280.789 30.912H278.005L273.829 24.096V34.368H268.309Z" fill="black"/>
</svg>
